<?xml version="1.0" encoding="utf-8"?>
<!-- Generator: Adobe Illustrator 19.2.1, SVG Export Plug-In . SVG Version: 6.00 Build 0)  -->
<svg version="1.1" id="layer" xmlns="http://www.w3.org/2000/svg" xmlns:xlink="http://www.w3.org/1999/xlink" x="0px" y="0px"
	 viewBox="0 0 652 652" style="enable-background:new 0 0 652 652;" xml:space="preserve">
<style type="text/css">
	.st0{fill:#D3600E;}
</style>
<path d="M224.3,286.4c-20.7,0-35.3,14-35.3,34.2c0,19.7,14.6,34.2,35.1,34.2c6.9,0,13.8-1.4,20-5v-19.1h-19.4v-16h36.5v1.5h0v42.1
	c-10.1,8.2-24.3,12.4-38.1,12.4c-30.1,0-52.4-21-52.4-50s22.2-50,52.6-50c16.3,0,29.9,5.4,39,15.8l-11.4,11.1
	C243.4,289.9,234.7,286.4,224.3,286.4 M387.5,319.3L359,272h-19.3l38.2,63.2v34H396v-34.3L434,272h-17.8L387.5,319.3z M621.7,272
	h-14.9l-37.9,64.4L530.3,272h-14.9v97.2h17.2v-63.6l31.9,52.5h8.1l31.9-53.3l0.1,64.4h17.1L621.7,272z"/>
<polygon class="st0" points="21.8,272.5 93.5,272.5 93.5,287.7 38.8,287.7 38.8,312.9 87.3,312.9 87.3,328 38.8,328 38.8,354 
	94.2,354 94.2,369.2 21.8,369.2 "/>
</svg>
